<svg width="14" height="16" viewBox="0 0 14 16" fill="none" xmlns="http://www.w3.org/2000/svg">
<path d="M0.250066 6.33688C0.747495 7.17857 1.95361 7.59345 2.79295 7.12005C3.67006 6.62534 3.81347 5.46572 4.16901 4.88587C4.52456 4.30602 5.15881 4.07923 5.73838 4.00071C6.31795 3.9222 7.49987 4.46535 8.40699 3.95362C9.25973 3.47257 9.52386 2.32386 9.02643 1.48218C8.529 0.640494 7.32288 0.225604 6.48354 0.699012C5.60643 1.19372 5.46303 2.35334 5.10748 2.93319C4.75193 3.51304 4.29913 3.88259 3.56743 3.90951C2.83574 3.93643 1.77663 3.35371 0.869505 3.86544C0.0167687 4.34649 -0.247362 5.4952 0.250066 6.33688Z" fill="#013BDB"/>
<path d="M9.02672 14.5178C8.52929 15.3595 7.32317 15.7744 6.48383 15.301C5.60672 14.8063 5.46332 13.6467 5.10777 13.0668C4.75222 12.487 4.11798 12.2602 3.53841 12.1817C2.95883 12.1031 1.77692 12.6463 0.869795 12.1346C0.0170584 11.6535 -0.247072 10.5048 0.250357 9.66312C0.747785 8.82143 1.9539 8.40655 2.79324 8.87995C3.67035 9.37466 3.81375 10.5343 4.1693 11.1141C4.52485 11.694 4.97766 12.0635 5.70935 12.0904C6.44105 12.1174 7.50016 11.5347 8.40728 12.0464C9.26002 12.5274 9.52415 13.6761 9.02672 14.5178Z" fill="#013BDB"/>
<path d="M12.0343 13.2389C13.0291 13.2389 14 12.426 14 11.4791C14 10.4897 13.0437 9.78859 12.7074 9.19786C12.3712 8.60713 12.4873 7.95714 12.7074 7.42754C12.9276 6.89794 14.0001 6.16957 14 5.14625C13.9999 4.18428 13.1137 3.38647 12.1188 3.38647C11.124 3.38647 10.1531 4.19944 10.1531 5.14625C10.1531 6.13567 11.1094 6.83681 11.4456 7.42754C11.7819 8.01827 11.8831 8.58613 11.5411 9.21863C11.1991 9.85113 10.153 10.4558 10.1531 11.4791C10.1532 12.4411 11.0394 13.2389 12.0343 13.2389Z" fill="#013BDB"/>
</svg>
